<svg xmlns="http://www.w3.org/2000/svg" width="275" height="246" viewBox="0 0 275 246" fill="none">
  <path d="M174.68 19.4355C178.38 13.1862 181.924 6.83701 185.78 0.683228C197.896 21.0163 209.648 41.5666 221.647 61.9735C239.166 92.1214 256.833 122.187 274.309 152.361C245.954 152.552 217.596 152.361 189.237 152.456C188.173 152.404 187.022 152.704 186.01 152.309C185.224 150.828 185.724 148.973 185.506 147.34C184.573 132.106 179.713 117.132 171.527 104.251C164.205 92.4081 153.995 82.4543 142.269 74.9933C138.313 82.0547 134.113 88.9772 130.049 95.9778C119.165 114.804 108.096 133.522 97.2211 152.352C106.302 152.552 115.396 152.382 124.485 152.439C143.312 152.439 162.138 152.435 180.964 152.439C182.519 152.461 184.125 152.209 185.637 152.669C186.084 154.05 185.737 155.527 185.693 156.942C185.172 172.659 180.443 188.198 172.2 201.582C164.848 213.786 154.486 224.087 142.491 231.735C127.808 240.863 110.562 246.053 93.2257 245.823C74.0651 246.005 54.948 239.747 39.4051 228.582C28.2874 220.647 19.0198 210.185 12.384 198.256C4.69284 184.532 0.614928 168.764 0.918926 153.021C0.654014 131.971 8.35819 111.087 21.6733 94.8487C28.6479 86.2977 37.2076 79.0625 46.701 73.4429C57.1455 67.4542 68.7061 63.3545 80.6532 61.7781C86.8244 60.8618 93.0867 61.0528 99.3013 61.1831C114.497 61.9866 129.323 67.0329 142.278 74.9282C153.131 56.4625 163.883 37.936 174.68 19.4355Z" fill="#B9B9B9"/>
</svg>