<svg width="19" height="18" viewBox="0 0 19 18" fill="none" xmlns="http://www.w3.org/2000/svg">
<g id="Iconsax/Outline/messageadd1">
<path id="Vector" d="M12.5 17.0625H2.75C2.03 17.0625 1.4375 16.47 1.4375 15.75V6C1.4375 2.685 3.185 0.9375 6.5 0.9375H12.5C15.815 0.9375 17.5625 2.685 17.5625 6V12C17.5625 15.315 15.815 17.0625 12.5 17.0625ZM6.5 2.0625C3.815 2.0625 2.5625 3.315 2.5625 6V15.75C2.5625 15.855 2.645 15.9375 2.75 15.9375H12.5C15.185 15.9375 16.4375 14.685 16.4375 12V6C16.4375 3.315 15.185 2.0625 12.5 2.0625H6.5Z" />
<path id="Vector_2" d="M12.125 9.5625H6.875C6.5675 9.5625 6.3125 9.3075 6.3125 9C6.3125 8.6925 6.5675 8.4375 6.875 8.4375H12.125C12.4325 8.4375 12.6875 8.6925 12.6875 9C12.6875 9.3075 12.4325 9.5625 12.125 9.5625Z"/>
<path id="Vector_3" d="M9.5 12.1875C9.1925 12.1875 8.9375 11.9325 8.9375 11.625V6.375C8.9375 6.0675 9.1925 5.8125 9.5 5.8125C9.8075 5.8125 10.0625 6.0675 10.0625 6.375V11.625C10.0625 11.9325 9.8075 12.1875 9.5 12.1875Z" />
</g>
</svg>
