<svg width="24" height="24" viewBox="0 0 24 24" fill="none" xmlns="http://www.w3.org/2000/svg">
<g id="Frame">
<g id="SVGRepo_iconCarrier">
<path id="Vector" fill-rule="evenodd" clip-rule="evenodd" d="M9.7071 3.29289C10.0976 3.68342 10.0976 4.31658 9.7071 4.70711L6.41421 8H12C16.4183 8 20 11.5817 20 16V20C20 20.5523 19.5523 21 19 21C18.4477 21 18 20.5523 18 20V16C18 12.6863 15.3137 10 12 10H6.41421L9.7071 13.2929C10.0976 13.6834 10.0976 14.3166 9.7071 14.7071C9.31658 15.0976 8.68342 15.0976 8.29289 14.7071L3.29289 9.70711C2.90237 9.31658 2.90237 8.68342 3.29289 8.29289L8.29289 3.29289C8.68342 2.90237 9.31658 2.90237 9.7071 3.29289Z" fill="#6B6B6B"/>
</g>
</g>
</svg>
