<svg width="24" height="24" viewBox="0 0 24 24" fill="none" xmlns="http://www.w3.org/2000/svg">
<g id="Frame 305">
<g id="prev">
<path id="Vector" d="M14.4349 20.3486L14.4349 20.3486L7.63357 13.5331C6.78831 12.6878 6.78837 11.3122 7.63406 10.4665L14.4349 3.65143C14.6021 3.48387 14.8219 3.4 15.041 3.4C15.2595 3.4 15.4787 3.48337 15.6458 3.65015C15.9806 3.98418 15.9811 4.52632 15.6471 4.86106L15.6471 4.86107L8.84561 11.6767L8.84546 11.6769C8.6671 11.8552 8.6673 12.1449 8.84497 12.3226L8.84512 12.3228L15.6471 19.1389L15.6471 19.1389C15.9811 19.4737 15.9806 20.0158 15.6458 20.3498L14.4349 20.3486ZM14.4349 20.3486C14.769 20.6833 15.3111 20.6839 15.6458 20.3498L14.4349 20.3486Z" fill="#B0B0B0" stroke="#B0B0B0" stroke-width="0.4"/>
</g>
</g>
</svg>
