<svg width="14" height="14" viewBox="0 0 14 14" fill="none" xmlns="http://www.w3.org/2000/svg">
<g id="Frame 305">
<g id="prev">
<path id="Vector" d="M11.9288 5.6386L11.9288 5.63861L7.95311 9.60601C7.42753 10.1316 6.57242 10.1316 6.04656 9.60587L11.9288 5.6386ZM11.9288 5.6386C12.1566 5.41122 12.157 5.04222 11.9296 4.81441L11.9288 5.6386ZM2.07104 5.63861L6.04642 9.60572L11.9296 4.81439C11.7022 4.58654 11.3332 4.58618 11.1054 4.81352L11.1054 4.81353L7.12931 8.78136L7.12916 8.78151C7.05811 8.85256 6.94188 8.85276 6.87035 8.78122L6.8702 8.78107L2.89439 4.81353L2.89438 4.81352C2.66654 4.58618 2.29753 4.58654 2.07016 4.8144C1.95666 4.92813 1.8999 5.07747 1.8999 5.22607C1.8999 5.37512 1.957 5.52481 2.07104 5.63861L2.201 5.50838L2.07104 5.63861Z" fill="#86BC42" stroke="#86BC42" stroke-width="0.4"/>
</g>
</g>
</svg>
