<svg width="16" height="18" viewBox="0 0 16 18" fill="none" xmlns="http://www.w3.org/2000/svg">
<g id="Group">
<path id="Vector" d="M6.59374 14.1814C2.95793 14.1814 0 11.2234 0 7.58764C0 3.95183 2.95793 0.993896 6.59374 0.993896C10.2296 0.993896 13.1875 3.95183 13.1875 7.58764C13.1875 11.2234 10.2296 14.1814 6.59374 14.1814V14.1814ZM6.59374 2.2439C3.64718 2.2439 1.25 4.64108 1.25 7.58764C1.25 10.5342 3.64718 12.9314 6.59374 12.9314C9.5403 12.9314 11.9375 10.5342 11.9375 7.58764C11.9375 4.64108 9.5403 2.2439 6.59374 2.2439V2.2439ZM15.817 16.8231C16.061 16.579 16.061 16.1832 15.817 15.9392L13.0201 13.1423C12.776 12.8982 12.3802 12.8982 12.1362 13.1423C11.8921 13.3864 11.8921 13.7821 12.1362 14.0262L14.933 16.8231C15.0551 16.9451 15.215 17.0061 15.375 17.0061C15.535 17.0061 15.6949 16.9451 15.817 16.8231V16.8231Z" fill="#878787"/>
</g>
</svg>
