<svg width="56" height="56" viewBox="0 0 56 56" fill="none" xmlns="http://www.w3.org/2000/svg">
<g id="Frame">
<g id="SVGRepo_iconCarrier">
<path id="Vector" d="M23.9477 26.3595L29.2222 23.7223M32.0525 33.6929L26.7778 31.0556M39 20.6667C39 22.6917 37.3584 24.3333 35.3333 24.3333C33.3082 24.3333 31.6667 22.6917 31.6667 20.6667C31.6667 18.6416 33.3082 17 35.3333 17C37.3584 17 39 18.6416 39 20.6667ZM24.3333 28C24.3333 30.0251 22.6917 31.6667 20.6667 31.6667C18.6416 31.6667 17 30.0251 17 28C17 25.9749 18.6416 24.3333 20.6667 24.3333C22.6917 24.3333 24.3333 25.9749 24.3333 28ZM39 35.3333C39 37.3584 37.3584 39 35.3333 39C33.3082 39 31.6667 37.3584 31.6667 35.3333C31.6667 33.3082 33.3082 31.6667 35.3333 31.6667C37.3584 31.6667 39 33.3082 39 35.3333Z" stroke-width="1.5"/>
</g>
</g>
</svg>
