<svg width="32" height="32" viewBox="0 0 32 32" fill="none" xmlns="http://www.w3.org/2000/svg">
<g id="Frame 260">
<rect width="32" height="32" rx="8" fill="#ACC294"/>
<path id="Vector" d="M24.9542 7.06659C25.0962 6.95011 25.1984 6.79051 25.3334 6.66669C25.2585 7.20693 25.1217 7.73616 25.0005 8.26677C24.5646 10.0526 24.0105 11.8068 23.3204 13.5008C22.7148 14.9821 22.001 16.4171 21.14 17.7508C20.2213 19.161 19.1287 20.4648 17.8088 21.4664C16.6811 22.3309 15.3794 22.9491 14.008 23.216C13.4431 23.326 12.8686 23.3815 12.2942 23.3834C11.8578 23.3815 11.4414 23.2256 11.0392 23.0628C10.7184 23.8071 10.4531 24.5789 10.1522 25.3334C9.9825 25.3306 9.82882 25.2412 9.66952 25.1903C9.23879 25.0197 8.79723 24.8803 8.37169 24.6954C8.90069 23.3068 9.40718 21.9066 10.0202 20.556C10.7132 19.0261 11.5461 17.5545 12.6076 16.2782C13.5383 15.1555 14.6387 14.1906 15.8578 13.4389C17.3413 12.5203 18.9781 11.9003 20.6512 11.5073C19.8716 11.4972 19.0989 11.643 18.3352 11.7962C16.7439 12.1328 15.198 12.7285 13.7898 13.5861C12.6149 14.3089 11.5418 15.2238 10.6522 16.3135C10.05 17.045 9.53532 17.8553 9.10415 18.7111C8.78771 19.3265 8.54096 19.9777 8.3033 20.6303C8.22841 20.573 8.16044 20.5061 8.10243 20.4304C7.58556 19.7796 7.14573 19.0486 6.8808 18.2424C6.66912 17.5921 6.60072 16.8831 6.73795 16.2075C6.98037 14.9166 7.59032 13.7233 8.38555 12.7208C9.26995 11.6118 10.4219 10.7492 11.6998 10.2264C12.7946 9.76733 13.9721 9.61782 15.1249 9.40594C16.2153 9.23076 17.3041 9.03768 18.398 8.88772C19.3244 8.74922 20.2504 8.60476 21.1711 8.42728C22.1335 8.23466 23.0984 8.01545 24.0109 7.62793C24.3434 7.47934 24.6707 7.30599 24.9542 7.06659Z" fill="white"/>
</g>
</svg>
