<svg width="15" height="16" viewBox="0 0 15 16" fill="none" xmlns="http://www.w3.org/2000/svg">
<g id="user 1" clip-path="url(#clip0_601_3329)">
<g id="Group">
<g id="Group_2">
<path id="Vector" d="M14.9625 13.3532C14.8965 13.0364 14.5863 12.833 14.2694 12.899C13.9526 12.9649 13.7492 13.2753 13.8152 13.592C13.8532 13.7745 13.8079 13.9616 13.6911 14.1053C13.6234 14.1885 13.4725 14.3281 13.2224 14.3281H1.77859C1.52846 14.3281 1.37755 14.1885 1.30987 14.1053C1.19301 13.9616 1.14777 13.7745 1.18577 13.592C1.79386 10.6713 4.37008 8.53772 7.34515 8.46576C7.39668 8.46775 7.44845 8.46875 7.50048 8.46875C7.55268 8.46875 7.60466 8.46772 7.65639 8.46573C9.75206 8.51601 11.6891 9.57746 12.8621 11.3269C13.0423 11.5957 13.4062 11.6674 13.6751 11.4872C13.9438 11.307 14.0156 10.943 13.8354 10.6743C12.874 9.24037 11.4779 8.1977 9.88606 7.67378C10.8561 6.94637 11.4849 5.78741 11.4849 4.48438C11.4849 2.2874 9.69748 0.5 7.50048 0.5C5.30348 0.5 3.5161 2.2874 3.5161 4.48438C3.5161 5.7882 4.14563 6.94777 5.11668 7.67513C4.22699 7.96804 3.39218 8.42381 2.66151 9.02481C1.32171 10.1269 0.390155 11.664 0.0385043 13.3532C-0.0717105 13.8825 0.0603305 14.4261 0.400702 14.8447C0.739403 15.2611 1.24164 15.5 1.77859 15.5H13.2223C13.7593 15.5 14.2616 15.2611 14.6002 14.8447C14.9407 14.4261 15.0727 13.8825 14.9625 13.3532ZM4.68798 4.48438C4.68798 2.93354 5.94965 1.67188 7.50048 1.67188C9.05131 1.67188 10.313 2.93354 10.313 4.48438C10.313 5.98745 9.12777 7.21892 7.64283 7.2933C7.59546 7.29242 7.548 7.29198 7.50048 7.29198C7.45319 7.29198 7.40591 7.29245 7.35868 7.29333C5.87348 7.21924 4.68798 5.98766 4.68798 4.48438Z" fill="#6B6B6B"/>
</g>
</g>
</g>
<defs>
<clipPath id="clip0_601_3329">
<rect width="15" height="15" fill="white" transform="translate(0 0.5)"/>
</clipPath>
</defs>
</svg>
