<svg width="64" height="64" viewBox="0 0 64 64" fill="none" xmlns="http://www.w3.org/2000/svg">
<g id="Frame 580">
<g clip-path="url(#clip0_5_121)">
<rect width="64" height="64" rx="16" fill="#EBEBEB"/>
<path id="Vector" d="M22.977 13.8761C25.8077 11.7281 29.4021 10.6233 32.9456 10.8062C36.145 10.9408 39.2934 12.1217 41.7991 14.1249C44.8265 16.5188 46.9079 20.0877 47.4735 23.917C48.2591 28.8673 46.4648 34.1497 42.7829 37.5444C42.1984 38.1809 41.4303 38.5994 40.8123 39.195C44.1808 40.2573 47.3919 41.864 50.1876 44.0399C55.3227 47.9585 59.1358 53.6125 60.7785 59.8812C60.8266 60.0758 63.8952 64.2448 64.0001 64.4175C57.8097 72.0675 45.5028 73.0622 35.7208 73.9183C35.0766 73.9417 34.4396 74.069 33.7939 74.0675H30.6601C26.7274 73.8744 7.6076 70.3043 3.9184 68.9054C-2.17875 66.611 2.06939 65.9883 3.41599 60.424C3.71334 59.9953 3.7629 59.4612 3.91886 58.9754C4.65495 56.5727 5.67528 54.2534 6.99586 52.1156C10.5524 46.2889 16.1584 41.7381 22.6126 39.5476C22.9537 39.4218 23.3268 39.3589 23.63 39.1467C22.3925 38.2409 21.2017 37.2445 20.2571 36.0226C17.1947 32.3191 16.0724 27.1187 17.2705 22.4655C18.1159 19.0575 20.1755 15.9759 22.977 13.8761Z" fill="#C4C6C2"/>
</g>
</g>
<defs>
<clipPath id="clip0_5_121">
<rect width="64" height="64" rx="16" fill="white"/>
</clipPath>
</defs>
</svg>
